<svg xmlns="http://www.w3.org/2000/svg" viewBox="0 0 640 420">
  <defs><linearGradient id="b" x1="0" y1="0" x2="1" y2="1"><stop stop-color="#dce6dd"/><stop offset="1" stop-color="#aebbb1"/></linearGradient><linearGradient id="m" x1="0" y1="0" x2="1" y2="1"><stop stop-color="#76877b"/><stop offset="1" stop-color="#27342c"/></linearGradient><filter id="s"><feDropShadow dx="0" dy="16" stdDeviation="14" flood-opacity=".25"/></filter></defs>
  <rect width="640" height="420" fill="#e9ede8"/><circle cx="80" cy="60" r="100" fill="#c9f154" opacity=".22"/><circle cx="570" cy="380" r="150" fill="#6da789" opacity=".16"/>
  <g transform="translate(187 77) rotate(-3 133 133)" filter="url(#s)"><rect width="266" height="266" rx="17" fill="url(#m)"/><path d="M22 6v-15m29 15v-15m29 15v-15m29 15v-15m29 15v-15m29 15v-15m29 15v-15m29 15v-15m29 15v-15M22 275v-15m29 15v-15m29 15v-15m29 15v-15m29 15v-15m29 15v-15m29 15v-15m29 15v-15m29 15v-15" stroke="#d8ba6c" stroke-width="6"/><rect x="41" y="41" width="184" height="184" rx="9" fill="url(#b)" stroke="#f8faf8" stroke-width="4"/><rect x="57" y="57" width="152" height="152" rx="4" fill="none" stroke="#839087"/><text x="133" y="105" text-anchor="middle" font-family="Arial" font-size="13" font-weight="700" fill="#39443d">PROCESSOR</text><text x="133" y="137" text-anchor="middle" font-family="Arial" font-size="24" font-weight="700" fill="#1f2a23">PC SCOUT</text><text x="133" y="164" text-anchor="middle" font-family="Arial" font-size="11" fill="#526057">PERFORMANCE SERIES</text></g>
</svg>
