<svg xmlns="http://www.w3.org/2000/svg" viewBox="0 0 640 420">
  <defs><linearGradient id="r" x1="0" y1="0" x2="1" y2="1"><stop stop-color="#314e40"/><stop offset="1" stop-color="#14241c"/></linearGradient><filter id="s"><feDropShadow dx="0" dy="15" stdDeviation="13" flood-opacity=".25"/></filter></defs>
  <rect width="640" height="420" fill="#e8ece7"/><circle cx="530" cy="60" r="150" fill="#c9f154" opacity=".17"/>
  <g transform="translate(75 138) rotate(-5 245 70)" filter="url(#s)"><path d="M0 0h490v123H306l-17 16h-39l-17-16H0z" fill="url(#r)"/><path d="M18 18h454v77H18z" fill="none" stroke="#5c7767" stroke-width="3"/><g fill="#151c18"><rect x="35" y="31" width="61" height="52" rx="4"/><rect x="108" y="31" width="61" height="52" rx="4"/><rect x="181" y="31" width="61" height="52" rx="4"/><rect x="254" y="31" width="61" height="52" rx="4"/><rect x="327" y="31" width="61" height="52" rx="4"/><rect x="400" y="31" width="55" height="52" rx="4"/></g><path d="M23 123v17m14-17v17m14-17v17m14-17v17m14-17v17m14-17v17m14-17v17m14-17v17m14-17v17m14-17v17m14-17v17m14-17v17m14-17v17m14-17v17m92-17v17m14-17v17m14-17v17m14-17v17m14-17v17m14-17v17m14-17v17m14-17v17m14-17v17m14-17v17" stroke="#d9bc59" stroke-width="7"/><text x="245" y="64" text-anchor="middle" font-family="Arial" font-weight="700" font-size="15" fill="#c9f154">DDR PERFORMANCE</text></g>
</svg>
