<svg xmlns="http://www.w3.org/2000/svg" viewBox="0 0 640 420">
  <defs><linearGradient id="p" x1="0" y1="0" x2="1" y2="1"><stop stop-color="#36463d"/><stop offset="1" stop-color="#111713"/></linearGradient><radialGradient id="f"><stop stop-color="#c9f154" stop-opacity=".7"/><stop offset=".65" stop-color="#26342b"/><stop offset="1" stop-color="#111713"/></radialGradient><filter id="s"><feDropShadow dx="0" dy="17" stdDeviation="15" flood-opacity=".3"/></filter></defs>
  <rect width="640" height="420" fill="#e7ece7"/><circle cx="100" cy="340" r="180" fill="#c9f154" opacity=".14"/>
  <g transform="translate(221 43)" filter="url(#s)"><path d="M16 0h183v334H16A16 16 0 0 1 0 318V16A16 16 0 0 1 16 0Z" fill="url(#p)"/><path d="M199 10h25v314h-25z" fill="#7d8b82"/><rect x="20" y="22" width="158" height="272" rx="11" fill="#151c18" stroke="#536158"/><circle cx="99" cy="103" r="57" fill="url(#f)" stroke="#627469" stroke-width="4"/><circle cx="99" cy="224" r="57" fill="url(#f)" stroke="#627469" stroke-width="4"/><g stroke="#8faf98" stroke-width="4"><path d="M99 53v100M49 103h100M63 67l72 72M135 67l-72 72M99 174v100M49 224h100M63 188l72 72M135 188l-72 72"/></g><circle cx="99" cy="103" r="12" fill="#c9f154"/><circle cx="99" cy="224" r="12" fill="#c9f154"/><circle cx="33" cy="313" r="5" fill="#c9f154"/></g>
</svg>
